
<svg width="100" height="100" viewBox="0 0 100 100" xmlns="http://www.w3.org/2000/svg">
  <defs>
    <pattern id="honeycomb" patternUnits="userSpaceOnUse" width="100" height="100">
      <polygon points="25,0 75,0 100,43.3 75,86.6 25,86.6 0,43.3" fill="none" stroke="#00E5C9" stroke-width="1" opacity="0.05" transform="translate(0, 0)" />
      <polygon points="25,0 75,0 100,43.3 75,86.6 25,86.6 0,43.3" fill="none" stroke="#00E5C9" stroke-width="1" opacity="0.05" transform="translate(50, 43.3)" />
      <polygon points="25,0 75,0 100,43.3 75,86.6 25,86.6 0,43.3" fill="none" stroke="#00E5C9" stroke-width="1" opacity="0.05" transform="translate(-50, 43.3)" />
      <polygon points="25,0 75,0 100,43.3 75,86.6 25,86.6 0,43.3" fill="none" stroke="#00E5C9" stroke-width="1" opacity="0.05" transform="translate(0, 86.6)" />
    </pattern>
  </defs>
  <rect width="100%" height="100%" fill="url(#honeycomb)" />
</svg>
