
<svg xmlns="http://www.w3.org/2000/svg" viewBox="0 0 100 100" width="60" height="60">
  <path fill="#00E5C9" d="M50,15c-19.33,0-35,15.67-35,35s15.67,35,35,35s35-15.67,35-35S69.33,15,50,15z M70,65H30c-2.76,0-5-2.24-5-5V40c0-2.76,2.24-5,5-5h40c2.76,0,5,2.24,5,5v20C75,62.76,72.76,65,70,65z M45,45h-5c-1.66,0-3,1.34-3,3v4c0,1.66,1.34,3,3,3h5V45z M60,45h-5v10h5c1.66,0,3-1.34,3-3v-4C63,46.34,61.66,45,60,45z M50,55c-1.66,0-3-1.34-3-3v-4c0-1.66,1.34-3,3-3s3,1.34,3,3v4C53,53.66,51.66,55,50,55z"/>
</svg>
