
<svg xmlns="http://www.w3.org/2000/svg" viewBox="0 0 122.88 122.88" width="60" height="60">
  <defs>
    <style>.cls-1{fill:#00E5C9;}</style>
  </defs>
  <path class="cls-1" d="M61.44,0A61.44,61.44,0,1,1,0,61.44,61.44,61.44,0,0,1,61.44,0ZM75.38,29.57a2.85,2.85,0,0,1,4,0l14,14a2.82,2.82,0,0,1,0,4L79.42,61.44l14,13.9a2.82,2.82,0,0,1,0,4l-14,14a2.85,2.85,0,0,1-4,0l-14-14a2.82,2.82,0,0,1,0-4l13.95-13.9L61.44,47.55a2.82,2.82,0,0,1,0-4l14-14ZM37.29,75.38a2.85,2.85,0,0,1,4,0l14,14a2.85,2.85,0,0,1,0,4h-28a2.85,2.85,0,0,1,0-4l10-14Z"/>
</svg>
